<svg width="2682" height="721" viewBox="0 0 2682 721" fill="none" xmlns="http://www.w3.org/2000/svg">
<g clip-path="url(#clip0_9_155)">
<path opacity="0.2" d="M1496.81 0L2993.61 728.783" stroke="white" stroke-opacity="0.4"/>
<path opacity="0.2" d="M1408.76 42.8691L2905.57 771.652" stroke="white" stroke-opacity="0.4"/>
<path opacity="0.2" d="M1320.71 85.7393L2817.52 814.522" stroke="white" stroke-opacity="0.4"/>
<path opacity="0.2" d="M1232.66 128.608L2729.47 857.391" stroke="white" stroke-opacity="0.4"/>
<path opacity="0.2" d="M1144.62 171.479L2641.42 900.261" stroke="white" stroke-opacity="0.4"/>
<path opacity="0.2" d="M1056.57 214.348L2553.38 943.13" stroke="white" stroke-opacity="0.4"/>
<path opacity="0.2" d="M968.522 257.218L2465.33 986.001" stroke="white" stroke-opacity="0.4"/>
<path opacity="0.2" d="M880.474 300.087L2377.28 1028.87" stroke="white" stroke-opacity="0.4"/>
<path opacity="0.2" d="M792.426 342.957L2289.23 1071.74" stroke="white" stroke-opacity="0.4"/>
<path opacity="0.2" d="M704.38 385.826L2201.19 1114.61" stroke="white" stroke-opacity="0.4"/>
<path opacity="0.2" d="M616.332 428.695L2113.14 1157.48" stroke="white" stroke-opacity="0.4"/>
<path opacity="0.2" d="M528.285 471.565L2025.09 1200.35" stroke="white" stroke-opacity="0.4"/>
<path opacity="0.2" d="M440.237 514.435L1937.04 1243.22" stroke="white" stroke-opacity="0.4"/>
<path opacity="0.2" d="M352.188 557.305L1849 1286.09" stroke="white" stroke-opacity="0.4"/>
<path opacity="0.2" d="M264.142 600.174L1760.95 1328.96" stroke="white" stroke-opacity="0.4"/>
<path opacity="0.2" d="M176.095 643.044L1672.9 1371.83" stroke="white" stroke-opacity="0.4"/>
<path opacity="0.2" d="M88.0474 685.913L1584.85 1414.7" stroke="white" stroke-opacity="0.4"/>
<path opacity="0.2" d="M1672.9 85.7393L176.095 814.522" stroke="white" stroke-opacity="0.4"/>
<path opacity="0.2" d="M1760.95 128.608L264.142 857.391" stroke="white" stroke-opacity="0.4"/>
<path opacity="0.2" d="M1849 171.479L352.189 900.261" stroke="white" stroke-opacity="0.4"/>
<path opacity="0.2" d="M1937.04 214.348L440.237 943.13" stroke="white" stroke-opacity="0.4"/>
<path opacity="0.2" d="M2025.09 257.218L528.284 986.001" stroke="white" stroke-opacity="0.4"/>
<path opacity="0.2" d="M2113.14 300.087L616.332 1028.87" stroke="white" stroke-opacity="0.4"/>
<path opacity="0.2" d="M2201.19 342.957L704.379 1071.74" stroke="white" stroke-opacity="0.4"/>
<path opacity="0.2" d="M2289.22 385.826L792.41 1114.61" stroke="white" stroke-opacity="0.4"/>
<path opacity="0.2" d="M2377.26 428.695L880.457 1157.48" stroke="white" stroke-opacity="0.4"/>
<path opacity="0.2" d="M2465.31 471.565L968.504 1200.35" stroke="white" stroke-opacity="0.4"/>
<path opacity="0.2" d="M2553.36 514.435L1056.55 1243.22" stroke="white" stroke-opacity="0.4"/>
<path opacity="0.2" d="M2641.41 557.305L1144.6 1286.09" stroke="white" stroke-opacity="0.4"/>
<path opacity="0.2" d="M2729.45 600.174L1232.65 1328.96" stroke="white" stroke-opacity="0.4"/>
<path opacity="0.2" d="M2817.5 643.044L1320.69 1371.83" stroke="white" stroke-opacity="0.4"/>
</g>
<defs>
<clipPath id="clip0_9_155">
<rect width="2682" height="721" fill="white"/>
</clipPath>
</defs>
</svg>
