<svg width="69" height="46" viewBox="0 0 69 46" fill="none" xmlns="http://www.w3.org/2000/svg">
<path d="M19.8629 24.0187C16.4705 24.0187 13.7061 26.4261 13.7061 29.3835C13.7061 32.3417 16.4655 34.75 19.8629 34.75C23.2604 34.75 26.0197 32.3434 26.0197 29.3835C26.0197 26.4236 23.2587 24.0187 19.8629 24.0187ZM19.8629 24.9071C22.4967 24.9071 24.6837 26.5601 25.0664 28.7122C24.8726 31.0273 22.6132 32.8608 19.8629 32.8608C17.1136 32.8608 14.8467 31.0273 14.6595 28.7122C15.0496 26.5601 17.2292 24.9071 19.8629 24.9071ZM19.8629 33.8624C17.4438 33.8624 15.4007 32.464 14.7893 30.5698C15.7152 32.1886 17.6418 33.3025 19.8629 33.3025C22.0841 33.3025 24.0107 32.1861 24.9366 30.5698C24.3252 32.464 22.2821 33.8624 19.8629 33.8624ZM48.5414 24.0187C45.149 24.0187 42.3854 26.4261 42.3854 29.3835C42.3854 32.3417 45.144 34.75 48.5414 34.75C51.9397 34.75 54.6982 32.3434 54.6982 29.3835C54.6982 26.4236 51.9322 24.0187 48.5414 24.0187ZM48.5414 24.9071C51.1751 24.9071 53.3622 26.5601 53.7448 28.7122C53.551 31.0273 51.2916 32.8608 48.5414 32.8608C45.792 32.8608 43.5251 31.0273 43.3379 28.7122C43.7214 26.5601 45.9076 24.9071 48.5414 24.9071ZM48.5414 33.8624C46.1223 33.8624 44.0792 32.464 43.4686 30.5698C44.3936 32.1886 46.3211 33.3025 48.5414 33.3025C50.7625 33.3025 52.6875 32.1861 53.6151 30.5698C53.002 32.464 50.9614 33.8624 48.5414 33.8624ZM68.9883 4.46683C68.9883 4.44853 68.9883 4.43023 68.9883 4.41193V4.22974C68.9925 4.13408 68.9675 4.04673 68.9135 3.96853C68.3411 1.07606 65.8488 1.26324 65.8213 1.26573C65.759 1.27072 65.7024 1.29069 65.6508 1.32729C65.5992 1.36306 65.5601 1.40882 65.5343 1.46539L64.7815 3.03682C64.3764 2.70906 63.9296 2.45616 63.4397 2.27731C62.9505 2.09928 62.4455 2.00445 61.9248 1.99363H6.65341C6.23248 2.00528 5.82485 2.08597 5.43054 2.23738C5.03706 2.38878 4.68018 2.60174 4.3599 2.87543L3.54548 1.17423C3.51886 1.11766 3.47893 1.07107 3.42735 1.0353C3.37578 0.998698 3.31921 0.9779 3.25599 0.971245C3.22853 0.971245 0.608923 0.773256 0.127261 3.90448C0.0399125 3.99515 -0.00251379 4.10413 -1.80804e-05 4.22974L0.889269 29.3993C0.890933 29.4442 0.899251 29.4875 0.914225 29.5291L5.64849 43.2544C5.6826 43.3509 5.7425 43.4266 5.82818 43.4823C6.01036 43.9249 6.28073 44.3042 6.6401 44.6212C7.28731 45.186 8.16329 45.4705 9.25306 45.4705C9.5176 45.4697 9.7813 45.4539 10.0442 45.4223C10.0891 45.4173 10.1315 45.4048 10.1715 45.384C10.2114 45.3632 10.2455 45.3358 10.2754 45.3016C10.3046 45.2675 10.327 45.2293 10.342 45.1868C10.3561 45.1444 10.3628 45.1003 10.3611 45.0554L10.2014 41.4126H24.8293C24.9133 41.4126 24.9907 41.3909 25.0622 41.3469C25.1338 41.3036 25.1887 41.2437 25.2261 41.1688L29.0478 33.5321H39.5029C39.5287 33.5346 39.5545 33.5346 39.5803 33.5321L43.4045 41.1738C43.4436 41.2479 43.4985 41.3069 43.57 41.3502C43.6416 41.3943 43.7198 41.4167 43.803 41.4176H58.8867L58.7187 45.3566C58.7162 45.4015 58.7229 45.4447 58.737 45.4872C58.752 45.5304 58.7736 45.5687 58.8027 45.6028C58.8318 45.6369 58.8668 45.6643 58.9067 45.686C58.9458 45.7068 58.9882 45.7201 59.0331 45.7251C59.296 45.7542 59.5597 45.77 59.8243 45.7708C60.914 45.7708 61.7925 45.4863 62.4372 44.924C62.7409 44.6486 62.9846 44.3283 63.1685 43.9623C63.3515 43.5963 63.4621 43.2095 63.5004 42.8018L68.0608 29.5432C68.0758 29.5008 68.0841 29.4575 68.0857 29.4134L68.9609 4.61491C68.9817 4.56749 68.9908 4.51841 68.9883 4.46683ZM6.67005 2.87294H61.9331C62.3881 2.88292 62.8266 2.97276 63.2483 3.14413C63.6693 3.31467 64.0469 3.55425 64.3805 3.86371L63.7508 5.18392H5.47296L4.75921 3.70399C5.01293 3.45027 5.30492 3.25228 5.63518 3.11003C5.96544 2.96777 6.31067 2.89207 6.67005 2.88209V2.87294ZM60.1279 12.8256L59.9956 15.872H59.2037C59.2095 13.3106 59.0573 10.7592 58.7478 8.21698C58.7412 8.16956 58.7204 8.1288 58.6879 8.09386C58.6546 8.05975 58.6147 8.03729 58.5681 8.02814C46.2845 5.89934 37.3617 8.01233 37.2793 8.02814C37.1961 8.04977 37.1421 8.10218 37.1179 8.18537C36.9441 8.91077 36.8251 9.64533 36.7594 10.389H32.3928C32.2788 9.04387 32.1649 8.22114 32.1649 8.21199C32.1574 8.16457 32.1374 8.12381 32.1041 8.08887C32.07 8.05393 32.0301 8.0323 31.9827 8.02315C19.7016 5.89435 10.7762 8.00485 10.6939 8.02315C10.6107 8.04478 10.5566 8.09719 10.5325 8.18037C10.505 8.28103 9.86865 10.6511 9.97597 15.8628H9.09333L8.95025 12.5253C8.94775 12.4771 8.93611 12.4313 8.91531 12.3881L5.80738 5.901H63.4114L60.162 12.6892C60.1421 12.7325 60.1312 12.7782 60.1279 12.8256ZM47.064 10.592C47.0224 10.5305 46.9691 10.483 46.9034 10.4481C46.8385 10.4132 46.7686 10.3949 46.6946 10.394H37.1978C37.2627 9.73517 37.3658 9.08214 37.5056 8.43576C38.6453 8.18537 47.0232 6.50911 58.3194 8.43576C58.6097 10.9048 58.757 13.383 58.7595 15.8695H45.9534V13.7407L47.0939 11.0088C47.1555 10.8649 47.1455 10.7259 47.064 10.592ZM21.525 11.0105L22.6656 13.7432V15.8745H10.421C10.327 11.389 10.8012 8.99313 10.9293 8.43743C12.069 8.18703 20.4469 6.51161 31.7456 8.43743C31.7822 8.73358 31.8637 9.42404 31.9461 10.394H21.9385C21.9019 10.3949 21.8661 10.4007 21.8312 10.4098C21.7962 10.4198 21.763 10.434 21.7314 10.4514C21.6997 10.4689 21.6706 10.4897 21.644 10.5146C21.6174 10.5396 21.5941 10.5671 21.5741 10.597C21.5542 10.627 21.5375 10.6594 21.525 10.6935C21.5126 10.7268 21.5051 10.7626 21.5009 10.7983C21.4968 10.8341 21.4968 10.8699 21.5018 10.9065C21.5059 10.9422 21.5151 10.9772 21.5275 11.0105H21.525ZM2.99644 1.67502L3.85578 3.47606C3.8408 3.55342 3.84579 3.62912 3.86992 3.70316C3.89487 3.77803 3.93564 3.84209 3.99304 3.89533C4.02049 3.91945 4.05127 3.93942 4.08371 3.95689L4.91394 5.69137L8.24315 12.6385L8.38207 15.872H5.92884C5.86894 15.8737 5.81237 15.8861 5.75747 15.9103C5.7034 15.9336 5.65515 15.9668 5.61355 16.0093C5.57196 16.0517 5.54035 16.1008 5.51789 16.1557C5.49542 16.2106 5.48378 16.268 5.48378 16.327V21.9514C5.48794 22.0513 5.52038 22.1403 5.58277 22.2185C5.64516 22.2967 5.72503 22.3491 5.82152 22.3749C6.80315 22.6527 7.73819 23.0429 8.62581 23.5453L9.06422 33.6095C8.1924 33.9921 7.27982 34.1743 6.32731 34.156C6.2017 34.151 6.09189 34.191 5.99955 34.2767C5.98457 34.29 5.97126 34.3058 5.96045 34.3224L5.09861 13.2674C5.09612 13.2183 5.0853 13.1725 5.06451 13.1284L0.893428 4.33207V4.20063C0.891764 4.13075 0.873463 4.06503 0.839355 4.0043C1.15381 1.98698 2.49231 1.71162 2.9981 1.68168L2.99644 1.67502ZM9.93021 33.097L9.54089 24.1102C11.4967 25.5102 12.3518 27.2431 12.0831 29.2654C11.8228 31.2394 10.9451 32.4099 9.93271 33.1128L9.93021 33.097ZM0.957483 6.12645L4.39151 13.3672L5.47296 40.0308L1.77606 29.3011L0.957483 6.12645ZM9.63656 44.7443C8.54595 44.8125 7.69826 44.5937 7.12842 44.0904C6.85473 43.8517 6.64759 43.5647 6.50783 43.2294C6.53445 43.1421 6.53445 43.0539 6.50783 42.9657L6.30235 42.3709L6.26409 41.3993H9.51094L9.63656 44.7443ZM29.4929 32.637L29.8206 31.9815C29.8348 31.9565 29.8456 31.9299 29.8531 31.9016L29.8639 31.8609H38.7576L38.7825 31.9249C38.7884 31.944 38.7958 31.9632 38.805 31.9815L39.1336 32.637H29.4929ZM30.2881 30.9732C30.4753 30.6588 30.7008 30.3751 30.9636 30.1206C31.2273 29.8668 31.5185 29.6522 31.8396 29.4758C32.1607 29.3003 32.4985 29.1689 32.8545 29.084C33.2106 28.9983 33.5708 28.9609 33.9368 28.9717C35.5057 28.9326 36.7918 29.4085 37.7585 30.3942C37.934 30.5748 38.0954 30.7678 38.2418 30.9732H30.2881ZM39.6169 31.6055C39.4705 31.2236 38.112 27.9759 33.9393 28.0833C30.8854 28.0833 29.5927 30.2462 29.1684 31.2095C29.1576 31.2311 29.1476 31.2527 29.1393 31.276C29.0728 31.4349 29.0295 31.5531 29.0112 31.6171L24.5539 40.5158H6.74492V35.0303C7.75816 34.9746 8.72231 34.73 9.63822 34.295C9.69978 34.2808 9.75552 34.2542 9.8046 34.2151C11.228 33.4706 12.6189 32.0638 12.9749 29.3993C13.4008 26.2115 11.3486 24.1626 9.36952 22.9605C9.3246 22.9181 9.27302 22.8865 9.21479 22.8665C8.31802 22.3432 7.37466 21.9231 6.38471 21.6079V16.7605H23.1356C23.1955 16.7605 23.2537 16.7488 23.3094 16.7255C23.366 16.7022 23.4151 16.6698 23.4575 16.6265C23.5008 16.5841 23.5332 16.535 23.5565 16.4793C23.5798 16.4235 23.5915 16.3653 23.5915 16.3046V13.6517C23.5915 13.5918 23.5798 13.5344 23.5573 13.4787L22.6315 11.2816H46.0241L45.0982 13.4787C45.0758 13.5344 45.0641 13.5918 45.0641 13.6517V16.3162C45.0641 16.3761 45.0758 16.4344 45.099 16.4901C45.1223 16.5458 45.1548 16.5957 45.198 16.6382C45.2405 16.6806 45.2896 16.7139 45.3461 16.7372C45.4019 16.7596 45.4601 16.7713 45.52 16.7713H60.0114C60.0397 16.8312 60.0813 16.8786 60.1362 16.9144C60.1911 16.9501 60.251 16.9693 60.3168 16.9718C60.3883 16.9759 60.454 16.9601 60.5156 16.9235C60.5763 16.8869 60.6221 16.8362 60.652 16.7713H62.2509V21.6079C61.404 21.8782 60.5896 22.2251 59.8085 22.6485C59.7378 22.666 59.6762 22.6993 59.6238 22.7484C57.5441 23.923 55.2065 26.0185 55.6582 29.3993C56.0434 32.2893 57.6464 33.701 59.1879 34.3881C59.2428 34.4289 59.3035 34.4547 59.3709 34.4655C60.1753 34.7933 61.0114 34.9813 61.879 35.0303V40.5158H44.0767L39.6169 31.6055ZM56.55 29.2812C56.2671 27.1682 57.2113 25.3713 59.3568 23.9413L59.4574 23.8756L59.0465 33.3408C57.9184 32.6736 56.8395 31.4665 56.55 29.2812ZM61.9655 44.3799C61.3816 44.8849 60.538 45.1037 59.4458 45.0354L59.603 41.3918H62.3391C62.3981 41.3909 62.4539 41.3785 62.5079 41.3552C62.562 41.3327 62.6094 41.3003 62.651 41.2587C62.6918 41.2179 62.7242 41.1705 62.7475 41.1164C62.77 41.0624 62.7825 41.0066 62.7841 40.9484V34.5728C62.7841 34.5121 62.7725 34.453 62.7484 34.3973C62.7242 34.3415 62.6901 34.2925 62.646 34.25C62.6019 34.2084 62.5512 34.1768 62.4938 34.156C62.4364 34.1344 62.3773 34.1253 62.3166 34.1286C61.493 34.1494 60.6944 34.0171 59.9224 33.7301L60.3783 23.3199C61.157 22.9214 61.968 22.6061 62.8116 22.3749C62.9089 22.3482 62.9888 22.295 63.0503 22.2151C63.1127 22.1361 63.1443 22.0454 63.1468 21.9448V16.3162C63.1468 16.2563 63.1352 16.1998 63.1127 16.144C63.0903 16.0891 63.0587 16.0409 63.0171 15.9976C62.9755 15.9552 62.9272 15.9219 62.8731 15.8986C62.8182 15.8745 62.7617 15.862 62.7018 15.8604H60.7094L60.8367 12.9163L66.0809 1.95953C66.5601 1.98282 67.7754 2.22157 68.1814 3.94774C68.1307 4.02011 68.1032 4.1008 68.0991 4.18898L68.0766 4.84451L64.0128 13.4196C63.9929 13.4629 63.9812 13.5086 63.9787 13.556L62.8207 42.0182L62.4971 42.9541C62.4697 43.0381 62.4672 43.1221 62.4888 43.207C62.5104 43.2926 62.5537 43.365 62.6178 43.4257C62.4788 43.7976 62.2609 44.1154 61.9631 44.3799H61.9655ZM63.6185 39.6798L64.6792 13.65L68.0009 6.64138L67.2006 29.2928L63.6185 39.6798Z" fill="url(#paint0_linear_7536_135)"/>
<defs>
<linearGradient id="paint0_linear_7536_135" x1="-0.00012207" y1="23.3698" x2="68.9888" y2="23.3698" gradientUnits="userSpaceOnUse">
<stop stop-color="#0CBAF1"/>
<stop offset="1" stop-color="#E95CE9"/>
</linearGradient>
</defs>
</svg>
