<svg width="64" height="61" viewBox="0 0 64 61" fill="none" xmlns="http://www.w3.org/2000/svg">
<mask id="mask0_7536_142" style="mask-type:luminance" maskUnits="userSpaceOnUse" x="0" y="0" width="64" height="61">
<path d="M0 0.935547H63.5481V60.9355H0V0.935547Z" fill="white"/>
</mask>
<g mask="url(#mask0_7536_142)">
<path d="M57.6019 41.763C57.6019 41.763 57.618 41.763 57.6226 41.763C57.6326 41.7561 57.6418 41.7485 57.651 41.74C57.6625 41.7316 57.6732 41.7224 57.6832 41.7117C57.6985 41.6979 57.7115 41.6826 57.7222 41.6657L57.746 41.6335C57.7567 41.6136 57.7659 41.5922 57.7736 41.5707C57.7782 41.5615 57.782 41.5508 57.7851 41.5408C57.7942 41.5079 57.7988 41.4749 57.7988 41.4412V13.0505C57.7981 12.9755 57.7766 12.9057 57.7345 12.8429C57.6923 12.7801 57.6372 12.7333 57.5675 12.7035L32.2399 1.16975C32.2085 1.10999 32.1648 1.06096 32.1073 1.02418C32.0139 0.962891 31.9127 0.947567 31.8039 0.978214C31.7618 0.965955 31.7189 0.961358 31.6752 0.964423C31.6315 0.967487 31.5894 0.977448 31.5496 0.995069C31.5097 1.01269 31.4737 1.03644 31.4415 1.06632C31.4094 1.0962 31.3841 1.13068 31.3642 1.16975L6.03426 12.7035C5.96454 12.7333 5.90861 12.7801 5.86647 12.8429C5.82434 12.9057 5.80288 12.9755 5.80212 13.0505V41.432C5.80212 41.4657 5.80671 41.4987 5.81667 41.5316C5.81667 41.5431 5.81667 41.55 5.82817 41.5615C5.83966 41.573 5.84426 41.6029 5.85575 41.6243L5.87873 41.6565C5.89099 41.6726 5.90402 41.6887 5.91857 41.7025L5.95075 41.7308C5.95918 41.7385 5.96914 41.7469 5.97833 41.7538H5.99902L6.01817 41.7676L31.5358 54.1089C31.5879 54.1349 31.6438 54.1472 31.702 54.1464C31.7603 54.1464 31.8147 54.1341 31.8668 54.1089L57.5836 41.7676L57.6019 41.763ZM49.3841 44.8636L41.4812 41.0988L48.3184 37.838C48.3583 37.8196 48.3866 37.7905 48.4042 37.7499L56.5132 41.4412L49.3841 44.8636ZM40.1772 49.2836L32.2445 45.5026L41.0484 41.3094L48.9513 45.0766L40.1772 49.2836ZM14.6275 45.0904L22.5626 41.3094L31.3665 45.5026L23.3662 49.3135L14.6275 45.0904ZM7.0839 41.4435L15.1929 37.7499C15.2097 37.7905 15.2381 37.8204 15.2779 37.838L22.1151 41.0988L14.1869 44.8774L7.0839 41.4435ZM24.5944 33.4709L31.3573 36.6941L22.5534 40.8881L15.5982 37.5675L24.5944 33.4709ZM25.0579 33.2648L31.8108 30.1925L38.5622 33.2648L31.8085 36.4834L25.0579 33.2648ZM39.0165 33.4709L48.015 37.5675L41.0484 40.8881L32.2445 36.6941L39.0165 33.4709ZM23.0046 41.0988L31.8085 36.9048L40.6124 41.0988L31.8085 45.2896L23.0046 41.0988ZM57.0342 21.9632L56.6266 21.7778C56.6036 21.7671 56.5791 21.7617 56.5538 21.761C56.5286 21.7602 56.504 21.764 56.4803 21.7725C56.4565 21.7817 56.4359 21.7947 56.4175 21.8123C56.3991 21.8299 56.3845 21.8498 56.3738 21.8728C56.3531 21.9211 56.3516 21.9694 56.37 22.0184C56.3883 22.0674 56.4213 22.1034 56.4688 22.1249L57.0342 22.3823V32.2351L56.6266 32.0497C56.6036 32.039 56.5791 32.0336 56.5538 32.0321C56.5286 32.0313 56.504 32.0351 56.4803 32.0443C56.4565 32.0535 56.4359 32.0665 56.4175 32.0834C56.3991 32.101 56.3845 32.1209 56.3738 32.1447C56.3531 32.1922 56.3516 32.2412 56.37 32.2903C56.3883 32.3393 56.4213 32.3745 56.4688 32.3968L57.0342 32.6542V40.839L32.2835 29.5719V21.3863L32.4896 21.4813C32.5379 21.5035 32.5869 21.5058 32.6367 21.4875C32.6865 21.4698 32.7225 21.4369 32.7448 21.3886C32.7662 21.3403 32.7678 21.2921 32.7494 21.2423C32.731 21.1925 32.6973 21.1565 32.6498 21.1343L32.2835 20.9672V11.1152L32.4896 11.2102C32.5379 11.2324 32.5869 11.234 32.6367 11.2156C32.6865 11.1964 32.7225 11.1635 32.7448 11.1152C32.7655 11.067 32.7662 11.0187 32.7478 10.9697C32.7294 10.9206 32.6973 10.8854 32.6498 10.8624L32.2835 10.6892V2.02938L57.0342 13.2965V21.9632ZM31.5189 1.93897V10.5061L30.7543 10.8555C30.7145 10.8747 30.6846 10.9045 30.6647 10.9444C30.6447 10.9842 30.6394 11.0264 30.6486 11.07C30.6585 11.1137 30.68 11.1497 30.7145 11.1781C30.7489 11.2064 30.7888 11.221 30.8332 11.2217C30.8608 11.221 30.8876 11.2148 30.9121 11.2033L31.5189 10.9252V20.7872L30.7543 21.1389C30.7313 21.1496 30.7114 21.1634 30.6938 21.1818C30.6769 21.2001 30.6631 21.2216 30.6547 21.2453C30.6455 21.2691 30.6417 21.2936 30.6424 21.3189C30.6432 21.3442 30.6493 21.3679 30.6593 21.3909C30.6938 21.4652 30.752 21.502 30.8332 21.5028C30.8608 21.502 30.8876 21.4959 30.9121 21.4836L31.5189 21.2063V29.3911L6.56674 40.8367V32.6542L7.13216 32.3945C7.18043 32.3722 7.21338 32.3362 7.231 32.2864C7.24939 32.2366 7.24709 32.1876 7.22487 32.1401C7.20265 32.0918 7.16741 32.0589 7.11761 32.0413C7.06857 32.0229 7.02031 32.0252 6.9728 32.0474L6.56674 32.232V22.3823L7.13216 22.1226C7.18043 22.1004 7.21338 22.0644 7.231 22.0146C7.24939 21.9648 7.24709 21.9165 7.22487 21.8682C7.20265 21.8207 7.16741 21.7878 7.11761 21.7694C7.06857 21.7518 7.02031 21.7533 6.9728 21.7755L6.56674 21.9609V13.2965L31.5189 1.93897ZM31.702 53.3427L23.7976 49.5196L31.7993 45.7064L39.7344 49.4874L31.702 53.3427ZM23.3433 14.4748C23.321 14.4273 23.3187 14.3791 23.3371 14.3293C23.3555 14.2802 23.3877 14.2442 23.436 14.2228L25.2663 13.3846C25.3131 13.3685 25.359 13.37 25.4042 13.3899C25.4494 13.4091 25.4824 13.4413 25.5023 13.4857C25.523 13.5309 25.526 13.5761 25.5115 13.6236C25.4969 13.6704 25.4686 13.7064 25.4257 13.7317L23.5953 14.5698C23.5708 14.5806 23.544 14.5859 23.5172 14.5859C23.4352 14.5867 23.377 14.5491 23.3433 14.4748ZM27.0017 12.7985C26.9794 12.7502 26.9771 12.7019 26.9955 12.6521C27.0132 12.6023 27.0461 12.5663 27.0944 12.5441L28.9247 11.7052C28.9707 11.6898 29.0167 11.6914 29.0619 11.7113C29.1071 11.7305 29.14 11.7626 29.1607 11.8071C29.1814 11.8523 29.1844 11.8975 29.1699 11.945C29.1553 11.9917 29.1262 12.0277 29.0841 12.053L27.2537 12.8912C27.2292 12.9027 27.2024 12.9088 27.1748 12.9096C27.0936 12.9096 27.0354 12.872 27.0017 12.7985ZM8.69819 21.1902C8.68823 21.1657 8.68286 21.1404 8.68363 21.1136C8.68363 21.0875 8.68976 21.0622 8.70049 21.0377C8.71121 21.014 8.7273 20.9933 8.74646 20.9757C8.76638 20.958 8.78936 20.9458 8.81464 20.9374L10.6419 20.0969C10.6657 20.0831 10.691 20.0747 10.7178 20.0716C10.7454 20.0685 10.7714 20.0708 10.7975 20.0785C10.8235 20.0869 10.8465 20.0999 10.8672 20.1176C10.8879 20.136 10.904 20.1574 10.9147 20.1819C10.9262 20.2064 10.9323 20.2325 10.9323 20.2601C10.9331 20.2869 10.9277 20.3129 10.917 20.3382C10.9062 20.3635 10.8909 20.385 10.871 20.4033C10.8511 20.4217 10.8281 20.4355 10.8021 20.4439L8.97171 21.2821C8.94719 21.2944 8.92037 21.3005 8.89279 21.3013C8.85372 21.3028 8.81694 21.2944 8.78323 21.2737C8.74952 21.2538 8.72424 21.2254 8.70738 21.1902H8.69819ZM12.3658 19.5108C12.3551 19.4878 12.3489 19.4633 12.3482 19.438C12.3466 19.4127 12.3512 19.3874 12.3596 19.3637C12.3688 19.3399 12.3819 19.3185 12.3995 19.3001C12.4171 19.2809 12.4378 19.2664 12.4608 19.2564L14.2888 18.4159C14.3126 18.4021 14.3379 18.3937 14.3647 18.3906C14.3915 18.3868 14.4183 18.3899 14.4444 18.3975C14.4704 18.406 14.4934 18.419 14.5141 18.4366C14.534 18.455 14.5501 18.4765 14.5616 18.501C14.5731 18.5255 14.5792 18.5515 14.5792 18.5791C14.58 18.6059 14.5746 18.632 14.5639 18.6573C14.5532 18.6818 14.5378 18.704 14.5171 18.7224C14.4972 18.7408 14.4742 18.7546 14.449 18.763L12.6209 19.6035C12.5949 19.615 12.568 19.6203 12.5397 19.6196C12.4592 19.6203 12.401 19.5836 12.3658 19.5108ZM16.0242 17.8321C16.0027 17.7846 16.0012 17.7356 16.0203 17.6866C16.0387 17.6375 16.0717 17.6023 16.1192 17.5801L17.9495 16.7396C17.9978 16.7181 18.0461 16.7166 18.0951 16.735C18.1441 16.7534 18.1801 16.7871 18.2024 16.8346C18.2123 16.8576 18.2184 16.8813 18.2192 16.9066C18.22 16.9319 18.2161 16.9564 18.207 16.9802C18.1985 17.0039 18.1855 17.0254 18.1679 17.0437C18.1503 17.0621 18.1303 17.0767 18.1074 17.0867L16.2793 17.9271C16.231 17.9478 16.182 17.9493 16.133 17.931C16.0832 17.9126 16.0472 17.8796 16.0242 17.8321ZM19.6849 16.1535C19.6626 16.106 19.6604 16.0577 19.6787 16.0079C19.6971 15.9589 19.7301 15.9229 19.7776 15.9014L21.6079 15.0632C21.6309 15.051 21.6554 15.0441 21.6815 15.0418C21.7075 15.0402 21.7328 15.0433 21.7573 15.0517C21.7818 15.0602 21.8041 15.0732 21.8232 15.0908C21.8424 15.1084 21.8577 15.1291 21.8684 15.1529C21.8791 15.1766 21.8845 15.2011 21.8853 15.2272C21.886 15.2532 21.8814 15.2785 21.8715 15.3023C21.8623 15.3268 21.8477 15.3475 21.8293 15.3659C21.811 15.3843 21.7895 15.3988 21.765 15.408L19.9354 16.2462C19.9101 16.2569 19.8841 16.2623 19.8565 16.2623C19.8197 16.263 19.7852 16.2531 19.7546 16.2339C19.7232 16.214 19.7002 16.1872 19.6849 16.1535ZM45.3067 16.8346C45.3289 16.7863 45.3649 16.7534 45.4147 16.735C45.4645 16.7166 45.5128 16.7181 45.5618 16.7396L47.4151 17.5801C47.4619 17.6023 47.4948 17.6383 47.5132 17.6873C47.5316 17.7356 47.5308 17.7846 47.5101 17.8321C47.494 17.8666 47.4703 17.8942 47.4381 17.9141C47.4067 17.934 47.3715 17.944 47.3339 17.9432C47.3063 17.9432 47.2803 17.9378 47.255 17.9271L45.4017 17.0867C45.3542 17.0644 45.3212 17.0292 45.3021 16.9802C45.2837 16.9311 45.2852 16.8821 45.3067 16.8346ZM52.6855 20.1942C52.6962 20.1712 52.7108 20.1505 52.7292 20.1337C52.7476 20.116 52.7683 20.103 52.792 20.0938C52.8158 20.0854 52.8403 20.0808 52.8656 20.0823C52.8908 20.0831 52.9154 20.0884 52.9383 20.0992L54.7917 20.9374C54.8323 20.9565 54.8622 20.9864 54.8821 21.0262C54.9012 21.0661 54.9066 21.1082 54.8974 21.1519C54.8882 21.1955 54.866 21.2308 54.8315 21.2591C54.797 21.2875 54.7572 21.3028 54.7128 21.3036C54.6852 21.3028 54.6591 21.2967 54.6339 21.2844L52.7805 20.4462C52.7575 20.4363 52.7376 20.4217 52.72 20.4033C52.7024 20.385 52.6893 20.3635 52.6809 20.3398C52.6717 20.3168 52.6679 20.2922 52.6687 20.267C52.6694 20.2417 52.6748 20.2172 52.6855 20.1942ZM41.6184 15.1559C41.6406 15.1077 41.6758 15.0747 41.7249 15.0563C41.7739 15.0379 41.823 15.0395 41.8705 15.0609L43.7246 15.9014C43.7721 15.9229 43.805 15.9589 43.8226 16.0079C43.841 16.0577 43.8387 16.106 43.8173 16.1535C43.8019 16.1879 43.7782 16.2148 43.7468 16.2355C43.7154 16.2554 43.6809 16.2653 43.6433 16.2646C43.6165 16.2638 43.5912 16.2577 43.5667 16.2462L41.7134 15.4057C41.6659 15.3835 41.6337 15.3482 41.6153 15.3C41.5969 15.2517 41.5977 15.2034 41.6184 15.1559ZM48.9972 18.5132C49.0195 18.4657 49.0547 18.4328 49.1045 18.4144C49.1535 18.396 49.2018 18.3983 49.2501 18.4205L51.1034 19.2587C51.144 19.2779 51.1739 19.307 51.1938 19.3476C51.213 19.3874 51.2183 19.4296 51.2091 19.4725C51.1999 19.5161 51.1777 19.5521 51.1432 19.5805C51.1088 19.6088 51.0689 19.6234 51.0245 19.6242C50.9969 19.6242 50.9709 19.618 50.9456 19.6058L49.0922 18.7676C49.044 18.7454 49.0103 18.7101 48.9919 18.6603C48.9735 18.6105 48.975 18.5615 48.9972 18.5132ZM34.2418 11.7979C34.2518 11.7749 34.2656 11.7542 34.284 11.7366C34.3024 11.7197 34.3238 11.7059 34.3476 11.6975C34.3713 11.6883 34.3958 11.6845 34.4211 11.6852C34.4472 11.686 34.4709 11.6921 34.4939 11.7029L36.3472 12.5418C36.3878 12.5602 36.4177 12.5901 36.4376 12.6299C36.4576 12.6698 36.4622 12.7119 36.453 12.7556C36.4438 12.7992 36.4216 12.8352 36.3871 12.8636C36.3526 12.8919 36.3135 12.9065 36.2683 12.9073C36.2407 12.9073 36.2147 12.9004 36.1902 12.8889L34.3361 12.0507C34.3131 12.04 34.2932 12.0254 34.2755 12.007C34.2587 11.9886 34.2449 11.968 34.2365 11.9442C34.2273 11.9205 34.2234 11.8959 34.2242 11.8707C34.225 11.8454 34.2311 11.8209 34.2418 11.7979ZM37.9301 13.4673C37.9401 13.4443 37.9546 13.4244 37.973 13.4068C37.9914 13.3899 38.0129 13.3762 38.0366 13.3677C38.0604 13.3585 38.0849 13.3547 38.1102 13.3555C38.1354 13.3562 38.1592 13.3624 38.1822 13.3723L40.0355 14.2136C40.0593 14.2235 40.0799 14.2373 40.0968 14.2557C40.1144 14.2741 40.1282 14.2955 40.1366 14.3193C40.1458 14.343 40.1497 14.3676 40.1489 14.3928C40.1474 14.4181 40.142 14.4426 40.1305 14.4656C40.1091 14.5131 40.0731 14.5461 40.024 14.5645C39.975 14.5836 39.9259 14.5821 39.8784 14.5606L38.0251 13.7202C38.0014 13.7094 37.9814 13.6956 37.9638 13.6765C37.947 13.6581 37.9339 13.6374 37.9248 13.6137C37.9156 13.5899 37.9117 13.5654 37.9125 13.5401C37.9133 13.5148 37.9194 13.4903 37.9301 13.4673ZM23.3341 24.7398C23.3119 24.6915 23.3096 24.6425 23.3279 24.5927C23.3456 24.5436 23.3785 24.5069 23.4268 24.4847L25.264 23.6557C25.3108 23.6404 25.356 23.6419 25.4019 23.661C25.4471 23.681 25.4801 23.7124 25.5 23.7576C25.5207 23.802 25.5237 23.848 25.5092 23.8947C25.4946 23.9422 25.4663 23.9782 25.4234 24.0035L23.593 24.8417C23.5685 24.8532 23.5425 24.8593 23.5149 24.8601C23.4344 24.8585 23.377 24.8218 23.3433 24.749L23.3341 24.7398ZM19.6849 26.4345C19.6626 26.387 19.6604 26.338 19.6787 26.289C19.6971 26.2399 19.7301 26.2039 19.7776 26.1817L21.6079 25.3435C21.6554 25.3221 21.7037 25.3198 21.7535 25.3382C21.8025 25.3558 21.8385 25.3887 21.86 25.4362C21.8822 25.4837 21.8845 25.5328 21.8661 25.5818C21.8485 25.6308 21.8155 25.6668 21.768 25.6891L19.9354 26.5203C19.9101 26.5311 19.8841 26.5364 19.8565 26.5364C19.7776 26.5387 19.7201 26.505 19.6849 26.4345ZM16.0242 28.1132C16.0027 28.0649 16.0012 28.0166 16.0203 27.9676C16.0387 27.9186 16.0717 27.8826 16.1192 27.8611L17.9495 27.0199C17.9978 26.9992 18.0461 26.9976 18.0951 27.016C18.1441 27.0344 18.1801 27.0674 18.2024 27.1149C18.2123 27.1379 18.2184 27.1624 18.2192 27.1877C18.22 27.2129 18.2161 27.2375 18.207 27.2612C18.1985 27.285 18.1855 27.3056 18.1679 27.324C18.1503 27.3424 18.1303 27.357 18.1074 27.3677L16.2793 28.2082C16.231 28.2289 16.182 28.2296 16.133 28.212C16.0832 28.1936 16.0472 28.1607 16.0242 28.1132ZM12.3658 29.7918C12.3558 29.7688 12.3497 29.7451 12.3489 29.719C12.3482 29.6938 12.352 29.6692 12.3612 29.6462C12.3696 29.6225 12.3826 29.601 12.4003 29.5827C12.4179 29.5643 12.4378 29.5497 12.4608 29.5398L14.2888 28.6993C14.3126 28.6847 14.3379 28.6763 14.3647 28.6732C14.3915 28.6702 14.4183 28.6725 14.4444 28.6809C14.4704 28.6893 14.4934 28.7023 14.5141 28.72C14.534 28.7376 14.5501 28.759 14.5616 28.7843C14.5731 28.8088 14.5792 28.8349 14.5792 28.8617C14.58 28.8893 14.5746 28.9153 14.5639 28.9399C14.5532 28.9651 14.5378 28.9866 14.5171 29.0057C14.4972 29.0241 14.4742 29.0372 14.449 29.0464L12.6209 29.8868C12.5949 29.8975 12.568 29.9029 12.5397 29.9029C12.5014 29.9021 12.4661 29.8907 12.4347 29.8692C12.4033 29.847 12.3803 29.8179 12.3658 29.7826V29.7918ZM8.70738 31.4705C8.69666 31.4475 8.69053 31.4237 8.68976 31.3977C8.68899 31.3724 8.69282 31.3479 8.70202 31.3241C8.71045 31.3004 8.72424 31.2797 8.74109 31.2613C8.75871 31.2429 8.7794 31.2284 8.80239 31.2184L10.6304 30.371C10.6542 30.3572 10.6795 30.348 10.7063 30.345C10.7331 30.3419 10.7599 30.3442 10.786 30.3526C10.812 30.3611 10.835 30.3741 10.8557 30.3917C10.8764 30.4093 10.8917 30.4308 10.9032 30.4561C10.9147 30.4806 10.9208 30.5066 10.9208 30.5335C10.9216 30.561 10.9162 30.5871 10.9055 30.6124C10.8948 30.6369 10.8794 30.6591 10.8595 30.6775C10.8396 30.6959 10.8166 30.7097 10.7906 30.7181L8.96021 31.5563C8.9357 31.5685 8.90888 31.5747 8.8813 31.5747C8.79932 31.5739 8.74109 31.5364 8.70738 31.4613V31.4705ZM27.0109 23.0795C26.9886 23.0313 26.9863 22.9822 27.0047 22.9324C27.0223 22.8834 27.0553 22.8474 27.1036 22.8244L28.9339 21.9862C28.9799 21.9701 29.0258 21.9724 29.071 21.9916C29.117 22.0115 29.15 22.0429 29.1699 22.0881C29.1906 22.1326 29.1936 22.1785 29.1791 22.2253C29.1645 22.2728 29.1362 22.3088 29.0933 22.3333L27.2629 23.1722C27.2384 23.1837 27.2124 23.1899 27.1848 23.1906C27.1442 23.1914 27.1074 23.1807 27.0737 23.1584C27.0407 23.137 27.0162 23.1071 27.0017 23.0703L27.0109 23.0795ZM49.0064 28.7935C49.0287 28.746 49.0647 28.7131 49.1137 28.6954C49.1627 28.6771 49.2118 28.6794 49.2593 28.7016L51.1126 29.5398C51.1532 29.5589 51.1831 29.588 51.203 29.6279C51.2222 29.6685 51.2275 29.7098 51.2183 29.7535C51.2091 29.7972 51.1869 29.8332 51.1524 29.8615C51.118 29.8899 51.0781 29.9044 51.0337 29.9052C51.0061 29.9052 50.9801 29.8991 50.9548 29.8868L49.1014 29.0486C49.0762 29.0387 49.0539 29.0249 49.0348 29.0057C49.0156 28.9866 49.0011 28.9644 48.9911 28.9399C48.9812 28.9146 48.9766 28.8885 48.9781 28.8617C48.9789 28.8341 48.9857 28.8088 48.9972 28.7843L49.0064 28.7935ZM37.9301 23.7484C37.9401 23.7254 37.9546 23.7055 37.973 23.6879C37.9914 23.6702 38.0129 23.6572 38.0366 23.648C38.0604 23.6396 38.0849 23.6358 38.1102 23.6365C38.1354 23.6373 38.1592 23.6426 38.1822 23.6534L40.0355 24.4938C40.0593 24.5046 40.0792 24.5191 40.0968 24.5375C40.1137 24.5559 40.1267 24.5766 40.1359 24.6003C40.1451 24.6241 40.1489 24.6486 40.1481 24.6739C40.1474 24.6992 40.1412 24.7237 40.1305 24.7467C40.1091 24.7942 40.0731 24.8271 40.024 24.8455C39.975 24.8639 39.9259 24.8624 39.8784 24.8417L38.0251 24.0004C38.0014 23.9905 37.9814 23.9759 37.9638 23.9575C37.947 23.9392 37.9339 23.9185 37.9248 23.8947C37.9156 23.871 37.9117 23.8464 37.9125 23.8212C37.9133 23.7959 37.9194 23.7714 37.9301 23.7484ZM41.6184 25.427C41.6406 25.3795 41.6758 25.3466 41.7249 25.3282C41.7739 25.3098 41.823 25.3106 41.8705 25.332L43.7246 26.1725C43.7721 26.1947 43.805 26.2307 43.8226 26.2798C43.841 26.3288 43.8387 26.3778 43.8173 26.4253C43.8019 26.459 43.7782 26.4866 43.7468 26.5065C43.7154 26.5272 43.6809 26.5364 43.6433 26.5364C43.6158 26.5364 43.5897 26.5311 43.5644 26.5203L41.7111 25.6799C41.6636 25.6569 41.6314 25.6216 41.613 25.5726C41.5954 25.5236 41.5969 25.4745 41.6184 25.427ZM34.2418 22.0697C34.2518 22.0467 34.2656 22.0261 34.284 22.0084C34.3024 21.9908 34.3238 21.9778 34.3476 21.9686C34.3713 21.9594 34.3958 21.9556 34.4211 21.9571C34.4472 21.9579 34.4709 21.964 34.4939 21.9747L36.3472 22.8152C36.3702 22.8259 36.3909 22.8397 36.4085 22.8581C36.4254 22.8773 36.4384 22.8979 36.4476 22.9217C36.4568 22.9454 36.4606 22.97 36.4599 22.9952C36.4591 23.0205 36.453 23.0443 36.4422 23.068C36.4078 23.1416 36.3503 23.1784 36.2683 23.1791C36.2415 23.1791 36.2147 23.1738 36.1902 23.1623L34.3361 22.3218C34.3131 22.3118 34.2932 22.2973 34.2755 22.2789C34.2587 22.2605 34.2449 22.2391 34.2365 22.2153C34.2273 22.1923 34.2234 22.1678 34.2242 22.1425C34.225 22.1172 34.2311 22.0927 34.2418 22.0697ZM45.3067 27.1057C45.3289 27.0582 45.3649 27.0252 45.4147 27.0068C45.4645 26.9885 45.5128 26.9892 45.5618 27.0107L47.4151 27.8511C47.4619 27.8741 47.4948 27.9094 47.5132 27.9584C47.5316 28.0074 47.5308 28.0557 47.5101 28.104C47.494 28.1385 47.4703 28.1653 47.4381 28.186C47.4067 28.2059 47.3715 28.2158 47.3339 28.2151C47.3063 28.2151 47.2803 28.2097 47.255 28.199L45.4017 27.3585C45.3542 27.3363 45.3212 27.3003 45.3021 27.2512C45.2837 27.2022 45.2852 27.1539 45.3067 27.1057ZM54.8775 31.4636C54.843 31.5371 54.7848 31.5747 54.7036 31.5747C54.676 31.5754 54.6499 31.5693 54.6247 31.5563L52.7713 30.7181C52.7238 30.6966 52.6901 30.6606 52.6717 30.6116C52.6533 30.5626 52.6549 30.5135 52.6763 30.466C52.6985 30.4178 52.7338 30.3848 52.7828 30.3657C52.8326 30.3473 52.8809 30.3488 52.9292 30.371L54.7825 31.2092C54.8308 31.2307 54.8645 31.2667 54.8829 31.3165C54.9012 31.3663 54.8997 31.4153 54.8775 31.4636ZM63.5374 45.5509C63.5374 48.9917 60.5677 52.2525 55.1786 54.7294C49.9772 57.1191 42.8994 58.6292 35.2332 58.9762H35.2072C35.1313 58.9778 35.0586 58.9648 34.9881 58.9379C34.9168 58.9104 34.854 58.8705 34.7996 58.8176C34.7444 58.7656 34.7015 58.7043 34.6716 58.6353C34.641 58.5656 34.6249 58.4928 34.6226 58.417C34.6211 58.3411 34.6341 58.2683 34.6617 58.1971C34.6893 58.1266 34.7291 58.0638 34.7812 58.0094C34.8341 57.9542 34.8946 57.9113 34.9643 57.8806C35.0333 57.8508 35.1061 57.8339 35.1819 57.8324C50.4384 57.1382 62.3912 51.7453 62.3912 45.5601C62.3912 43.6248 61.2044 41.6772 58.9596 39.9334C58.8937 39.8898 58.8393 39.8346 58.7956 39.7679C58.7527 39.7021 58.7244 39.6293 58.7113 39.5511C58.6983 39.473 58.7014 39.3956 58.7205 39.319C58.7397 39.2416 58.7734 39.1719 58.8217 39.109C58.8699 39.0462 58.9289 38.9957 58.9986 38.9566C59.0676 38.9183 59.1419 38.8953 59.2208 38.8876C59.2997 38.88 59.3771 38.8884 59.4522 38.9129C59.5281 38.9374 59.5955 38.9757 59.6545 39.0286C62.1966 40.99 63.5374 43.2471 63.5374 45.5509ZM30.2448 58.453C30.2394 58.5533 30.2096 58.646 30.1544 58.7311C30.1 58.8154 30.028 58.8812 29.9391 58.928L26.2577 60.8518C26.1911 60.8878 26.1198 60.91 26.0447 60.9177C25.9689 60.9253 25.8953 60.9185 25.8225 60.897C25.7498 60.8748 25.6846 60.8403 25.6256 60.792C25.5667 60.7445 25.5199 60.6871 25.4839 60.6204C25.4487 60.5538 25.4272 60.4825 25.4195 60.4074C25.4119 60.3323 25.4188 60.2588 25.441 60.186C25.4625 60.114 25.4969 60.0481 25.5444 59.9891C25.5919 59.9309 25.6494 59.8834 25.7153 59.8474L27.4483 58.9418C11.7245 58.0385 0.0107422 52.3681 0.0107422 45.5509C0.0107422 43.0969 1.52084 40.7118 4.38013 38.6509C4.44142 38.6026 4.50961 38.5674 4.58469 38.5475C4.66054 38.5268 4.73639 38.5214 4.81378 38.5321C4.89116 38.5429 4.96394 38.5681 5.0306 38.6087C5.09802 38.6486 5.15395 38.7007 5.19992 38.7635C5.24589 38.8271 5.2773 38.8968 5.29416 38.9727C5.31178 39.0493 5.31254 39.1259 5.29875 39.2025C5.2842 39.2791 5.25585 39.3504 5.21218 39.4155C5.16927 39.4806 5.11487 39.5343 5.04975 39.5772C2.50305 41.4159 1.16917 43.4807 1.16917 45.5509C1.16917 51.687 12.7527 56.9988 27.7402 57.8002L25.9773 56.6004C25.9145 56.5583 25.8624 56.5046 25.8202 56.4418C25.7789 56.3782 25.7505 56.3093 25.7367 56.2342C25.7222 56.1599 25.7229 56.0855 25.7383 56.0112C25.7536 55.9369 25.7827 55.868 25.8256 55.8051C25.8685 55.7423 25.9214 55.6902 25.985 55.6488C26.0486 55.6067 26.1175 55.5791 26.1918 55.5646C26.2669 55.5508 26.3412 55.5508 26.4156 55.5668C26.4899 55.5822 26.5588 55.6113 26.6216 55.6534L29.995 57.9458C30.0778 58.0025 30.1421 58.076 30.1866 58.1664C30.231 58.2568 30.2509 58.3526 30.2448 58.453Z" fill="url(#paint0_linear_7536_142)"/>
</g>
<defs>
<linearGradient id="paint0_linear_7536_142" x1="0.0107422" y1="30.9418" x2="63.5374" y2="30.9418" gradientUnits="userSpaceOnUse">
<stop stop-color="#0CBAF1"/>
<stop offset="1" stop-color="#E95CE9"/>
</linearGradient>
</defs>
</svg>
