<svg width="16" height="16" viewBox="0 0 16 16" fill="none" xmlns="http://www.w3.org/2000/svg">
<path d="M11.3291 12.22L3.78659 4.67749L4.7294 3.73468L12.2719 11.2772L11.3291 12.22Z" fill="white"/>
<path d="M11.3291 12.22L3.78659 4.67749L4.7294 3.73468L12.2719 11.2772L11.3291 12.22Z" fill="white"/>
<path d="M11.3299 12.2206L3.78738 4.67818L4.73019 3.73537L12.2727 11.2778L11.3299 12.2206Z" fill="white"/>
<path d="M11.3299 12.2206L3.78738 4.67818L4.73019 3.73537L12.2727 11.2778L11.3299 12.2206Z" fill="white"/>
<path d="M3.77982 11.3352L11.3223 3.79273L12.2651 4.73554L4.72263 12.278L3.77982 11.3352Z" fill="white"/>
<path d="M3.77982 11.3352L11.3223 3.79273L12.2651 4.73554L4.72263 12.278L3.77982 11.3352Z" fill="white"/>
<path d="M3.77914 11.336L11.3216 3.79352L12.2644 4.73633L4.72195 12.2788L3.77914 11.336Z" fill="white"/>
<path d="M3.77914 11.336L11.3216 3.79352L12.2644 4.73633L4.72195 12.2788L3.77914 11.336Z" fill="white"/>
</svg>
