<svg width="20" height="20" viewBox="0 0 20 20" fill="none" xmlns="http://www.w3.org/2000/svg">
<path fill-rule="evenodd" clip-rule="evenodd" d="M13.8824 1.66699C16.6574 1.66699 18.7499 3.93116 18.7499 6.93366V12.657C18.7499 14.1937 18.2066 15.582 17.2191 16.567C16.3333 17.4495 15.1841 17.917 13.8958 17.917H5.68492C4.39909 17.917 3.25075 17.4503 2.36409 16.567C1.37659 15.582 0.833252 14.1937 0.833252 12.657V6.93366C0.833252 3.93116 2.92575 1.66699 5.70075 1.66699H13.8824ZM13.8824 2.91699H5.70075C3.60492 2.91699 2.08325 4.60616 2.08325 6.93366V12.657C2.08325 13.8595 2.49659 14.9337 3.24659 15.6812C3.89325 16.327 4.73742 16.667 5.68742 16.667H13.8824C13.8841 16.6653 13.8908 16.667 13.8958 16.667C14.8466 16.667 15.6899 16.327 16.3366 15.6812C17.0874 14.9337 17.4999 13.8595 17.4999 12.657V6.93366C17.4999 4.60616 15.9783 2.91699 13.8824 2.91699ZM15.1958 6.77433C15.4133 7.04183 15.3724 7.43516 15.1049 7.65349L11.4016 10.6635C10.9333 11.0352 10.3733 11.221 9.81409 11.221C9.25659 11.221 8.70075 11.0368 8.23575 10.6685L4.49825 7.65516C4.22909 7.43849 4.18742 7.04433 4.40325 6.77599C4.62075 6.50849 5.01409 6.46599 5.28242 6.68183L9.01658 9.69182C9.48575 10.0635 10.1466 10.0635 10.6191 9.68849L14.3158 6.68349C14.5841 6.46433 14.9774 6.50599 15.1958 6.77433Z" fill="#B0B0B2"/>
</svg>
