<svg width="60" height="65" viewBox="0 0 60 65" fill="none" xmlns="http://www.w3.org/2000/svg">
<path opacity="0.86" d="M35.5696 45.2821C35.5921 45.3186 35.6053 45.3582 35.6115 45.4008C35.6178 45.4427 35.6146 45.4846 35.6038 45.5258C35.5921 45.5669 35.5735 45.6049 35.5471 45.6383C35.5207 45.6716 35.4888 45.6988 35.4516 45.7197C32.4375 47.4305 29.2891 48.8433 26.0071 49.9583C27.5401 51.6752 26.9639 59.8947 26.4754 64.6538C26.4715 64.6926 26.4614 64.7291 26.4435 64.764C26.4257 64.7989 26.4024 64.8292 26.3736 64.8556C26.3449 64.8812 26.3123 64.9013 26.2758 64.9153C26.2393 64.9293 26.2012 64.9363 26.1624 64.9355H26.1321C26.0886 64.9324 26.0482 64.9207 26.0102 64.9006C25.9721 64.8804 25.9387 64.8532 25.9115 64.8199C25.8844 64.7865 25.8649 64.7493 25.8533 64.7082C25.8409 64.6663 25.8378 64.6244 25.8424 64.5817C27.1805 51.5224 25.5582 50.3648 25.444 50.2927C25.371 50.2833 25.3089 50.2515 25.2584 50.1988C23.4543 50.8032 21.616 51.2741 19.7444 51.6116C19.2815 51.7125 18.814 51.7637 18.3403 51.7652C16.7901 51.7652 15.3976 51.1942 14.5962 50.1685C13.8428 49.2057 13.2534 47.4452 14.6334 44.4814C14.0882 44.0446 12.8488 42.7521 13.8211 40.7333C13.8475 40.679 13.8863 40.6355 13.9376 40.6037C13.9888 40.5711 14.0448 40.5556 14.1053 40.5556H19.3172C19.3568 40.5595 19.3941 40.5696 19.4298 40.5866C19.4648 40.6045 19.4966 40.6277 19.523 40.6565C19.5494 40.6852 19.5704 40.7185 19.5844 40.755C19.5992 40.7922 19.6061 40.8302 19.6061 40.8698C19.6061 40.9094 19.5992 40.9474 19.5844 40.9839C19.5704 41.0211 19.5494 41.0537 19.523 41.0832C19.4966 41.1119 19.4648 41.1352 19.4298 41.1522C19.3941 41.1701 19.3568 41.1802 19.3172 41.1833H14.3158C14.2568 41.3097 14.2094 41.4408 14.1745 41.5758C14.1395 41.7116 14.1162 41.8482 14.1061 41.9878C14.096 42.1275 14.0983 42.2664 14.1139 42.4052C14.1286 42.5441 14.1566 42.6799 14.1962 42.8141C14.2366 42.9476 14.2886 43.0771 14.3515 43.2013C14.4152 43.3254 14.4898 43.4433 14.5744 43.5543C14.6598 43.6652 14.7538 43.7677 14.8579 43.8615C14.9612 43.9546 15.073 44.0384 15.1918 44.1121C15.2252 44.1323 15.2547 44.1579 15.2788 44.1897C15.3029 44.2208 15.3207 44.2549 15.3316 44.2929C15.3425 44.3309 15.3464 44.3697 15.3433 44.4093C15.3402 44.4481 15.3293 44.4853 15.3122 44.521C14.2172 46.7454 14.1426 48.5633 15.0932 49.7705C15.9848 50.9095 17.7671 51.3866 19.6325 50.9839C19.7226 50.9684 26.8963 49.8442 35.1362 45.1557C35.1735 45.1347 35.2131 45.1215 35.2551 45.1169C35.2978 45.1122 35.3389 45.1153 35.3801 45.1277C35.4205 45.1394 35.4578 45.1588 35.4904 45.1859C35.5238 45.2123 35.5502 45.2449 35.5696 45.2821ZM50.6027 43.9965C50.0466 47.6966 52.5233 54.2868 56.491 59.6666C56.5159 59.7 56.533 59.7372 56.543 59.7776C56.5531 59.8179 56.5547 59.8582 56.5493 59.8994C56.543 59.9405 56.5291 59.9785 56.5073 60.0142C56.4864 60.0499 56.4584 60.0794 56.425 60.1042C56.3916 60.129 56.3551 60.1461 56.3147 60.1554C56.2743 60.1655 56.234 60.1678 56.1928 60.1616C56.1516 60.1554 56.1136 60.1414 56.0779 60.1205C56.0421 60.0988 56.0126 60.0716 55.987 60.039C51.8639 54.4505 49.3942 47.8145 49.9829 43.9019C50.1732 42.6333 51.2201 40.2871 52.232 38.0185C52.9325 36.4505 53.6556 34.8297 54.0431 33.6753C54.0416 33.6667 54.0416 33.6574 54.0431 33.6489C54.1021 33.5154 54.1588 33.3796 54.2155 33.2439H49.4509C49.4595 33.316 49.4447 33.382 49.4075 33.4433C49.0184 34.0919 48.5765 34.7009 48.0802 35.272C47.9684 35.7088 47.3378 37.9464 45.9468 38.6508C45.668 38.7959 45.3706 38.8689 45.056 38.8696C44.74 38.865 44.4378 38.799 44.1497 38.6702C42.9141 38.1411 43.0392 36.8702 43.2737 36.2643C43.2908 36.2286 43.3141 36.1976 43.3436 36.1704C43.3723 36.1433 43.4057 36.1223 43.443 36.1076C43.4803 36.0936 43.5183 36.0866 43.5587 36.0866C43.5983 36.0866 43.6371 36.0936 43.6737 36.1084C43.7109 36.1231 43.7443 36.144 43.7731 36.1712C43.8026 36.1991 43.8251 36.2302 43.8422 36.2666C43.8593 36.3023 43.8694 36.3403 43.8725 36.3799C43.8748 36.4195 43.8701 36.4583 43.8585 36.4963C43.8119 36.6142 43.4313 37.6709 44.3928 38.0845C44.5916 38.1838 44.8029 38.2334 45.025 38.2334C45.2479 38.2334 45.4591 38.1838 45.6579 38.0845C46.9153 37.4483 47.476 35.0749 47.4822 35.0509C47.4931 35.0028 47.514 34.9601 47.5459 34.9221C48.0056 34.3945 48.4196 33.8328 48.7877 33.2377H43.8119C43.7847 33.2384 43.7575 33.2346 43.7311 33.2268C43.2442 33.0825 42.786 32.8746 42.3557 32.6046C41.9263 32.3338 41.5403 32.011 41.2001 31.6347C41.1403 31.6976 41.0673 31.7302 40.9811 31.7333H39.6228C38.6862 33.299 37.5671 34.3572 36.2662 34.3572H36.1831C35.7451 34.6179 33.7741 35.7484 31.8977 35.7484C31.7642 35.7484 31.6282 35.7484 31.4947 35.729C31.1599 35.8834 30.8081 35.9633 30.4392 35.9695C30.3655 35.9695 30.2925 35.9648 30.2202 35.954L10.1088 34.874C10.1314 34.8887 10.1508 34.9065 10.1686 34.9259C10.915 35.9082 13.0981 35.9741 13.8778 35.9144C13.9252 35.9105 13.9718 35.9175 14.016 35.9346C14.0611 35.9516 14.0999 35.978 14.1325 36.0129C14.1651 36.0478 14.1884 36.0882 14.2024 36.134C14.2164 36.1797 14.2203 36.2263 14.2125 36.2736C14.1232 36.8858 13.9935 38.6508 14.4059 39.4446C14.4245 39.4818 14.4362 39.5206 14.4401 39.5625C14.4439 39.6036 14.4401 39.644 14.4276 39.6843C14.4152 39.7239 14.3958 39.7596 14.3694 39.7914C14.343 39.824 14.3111 39.8496 14.2739 39.869C14.2288 39.8946 14.1799 39.907 14.1271 39.9062C14.0696 39.9062 14.0152 39.8907 13.9655 39.8612C13.9158 39.8317 13.877 39.7914 13.849 39.7402C13.3831 38.865 13.4724 37.2776 13.5446 36.5552C12.6694 36.5708 10.5515 36.4722 9.66694 35.3046C9.64209 35.2712 9.62422 35.2347 9.61413 35.1944C9.60326 35.1548 9.60093 35.1145 9.60714 35.0734C9.61257 35.0322 9.62578 34.9934 9.64675 34.9577C9.66772 34.9221 9.6949 34.8918 9.72829 34.867C9.72829 34.867 9.74382 34.867 9.75004 34.8561L5.90731 34.6482C5.80169 34.6482 3.23729 34.576 2.98566 32.9684C0.660457 32.4153 0.471737 29.8363 0.460865 29.6066C-0.0400565 24.787 -0.132474 19.9596 0.182834 15.1236C0.248847 13.409 1.76637 12.8511 2.31155 12.786L2.63075 12.7285C2.89169 12.3639 3.7716 11.3972 5.96867 11.0752C6.04089 11.0752 10.4878 10.4716 17.211 10.1527C21.2922 4.04355 30.0408 0.677864 36.1482 0.950967C44.3509 1.32105 51.356 5.32527 54.9339 11.6679L55.8425 11.5873C55.8045 11.346 55.8115 11.1062 55.8627 10.868C55.9148 10.6291 56.008 10.4087 56.1431 10.2047C56.4273 9.8307 56.8723 9.63441 57.4564 9.61889H57.52C59.5874 9.61889 59.7474 12.2979 59.8654 14.2601C60.1109 18.3279 60.0208 21.5586 59.5936 24.1345C58.9871 27.8136 57.9953 30.5865 55.0372 32.8831C54.9036 33.2221 54.7654 33.5589 54.6209 33.8871C54.2248 35.0703 53.5259 36.6274 52.7943 38.2746C51.8095 40.5052 50.7797 42.811 50.6027 43.9965ZM56.6091 18.3605L48.7652 19.1876C48.5105 19.3459 48.234 19.4087 47.9358 19.3753L46.4027 19.4328C46.1759 21.0753 45.7954 22.6821 45.2611 24.2524C44.7267 25.8228 44.048 27.3287 43.2255 28.7695C43.4259 29.0286 43.6667 29.2428 43.9486 29.4111C44.2297 29.5787 44.5326 29.6897 44.8564 29.7424C45.7325 29.9286 48.5159 29.9612 50.5367 29.9612C50.525 29.9007 50.5312 29.8417 50.5545 29.7843C51.1875 28.2334 51.297 26.8686 50.8566 26.04C50.7409 25.8204 50.5825 25.6381 50.3806 25.4922C50.1794 25.3472 49.9565 25.2541 49.7111 25.2129C46.8493 24.6008 46.1223 27.2185 46.0936 27.3303C46.0851 27.3722 46.068 27.4109 46.0431 27.4459C46.0175 27.4808 45.9872 27.5095 45.9499 27.532C45.9134 27.5545 45.8738 27.5692 45.8311 27.5754C45.7884 27.5816 45.7465 27.5793 45.7045 27.5677C45.6626 27.5568 45.6253 27.5382 45.5911 27.5118C45.557 27.4847 45.5298 27.4528 45.5096 27.4148C45.4886 27.3776 45.4762 27.3372 45.4715 27.2938C45.4676 27.2511 45.4723 27.2092 45.4855 27.1681C45.4855 27.1355 46.398 23.8637 49.8431 24.5984C50.0078 24.6295 50.167 24.6791 50.3208 24.7466C50.4745 24.8134 50.619 24.8972 50.7541 24.9972C50.8892 25.0965 51.0112 25.2106 51.1207 25.3378C51.2302 25.4651 51.3234 25.6024 51.4018 25.7514C51.9322 26.7484 51.8398 28.2442 51.1502 29.9659C51.9276 29.9659 52.5124 29.9659 52.698 29.9659C52.9916 29.8301 54.6691 28.9464 56.0988 25.9981C56.1804 25.5171 56.7885 21.3903 56.6091 18.3605ZM47.9264 18.7477H47.9598C48.3101 18.7655 48.4149 18.6848 48.4258 18.6623V14.8591C42.9669 11.834 36.6491 10.9968 33.7259 10.778C34.0366 11.0372 34.289 11.3429 34.4847 11.6966C34.6796 12.0504 34.8039 12.4275 34.8582 12.8271C35.544 17.9485 35.5968 23.077 35.0182 28.2116C34.6283 31.582 33.7655 33.8979 32.4538 35.1052C34.1771 34.8864 35.916 33.8087 35.9354 33.7932H35.9595C38.1231 32.6643 38.3685 29.1543 38.3685 29.1194L38.8066 21.7642C38.857 19.1154 41.3484 19.0037 41.3725 19.0037L47.9264 18.7477ZM57.9169 16.9717L57.5946 12.09L45.9429 12.9652C46.9588 13.3857 47.9451 13.8652 48.9034 14.4044C48.9531 14.4323 48.992 14.4704 49.0207 14.5192C49.0494 14.5681 49.0634 14.6209 49.0634 14.6775V18.5273L56.8786 17.7026C57.9169 17.5428 57.9169 16.9787 57.9169 16.9717ZM36.1195 1.57864C35.7451 1.5639 35.3599 1.55924 34.9677 1.57864C32.8017 2.00536 27.9711 3.64553 23.4124 9.97734C25.7663 9.94941 28.2709 9.97734 30.8571 10.0565C30.9122 10.0565 30.9689 10.0565 31.0302 10.0712C31.33 10.0456 31.629 10.0503 31.928 10.0844C31.9661 10.0697 32.0057 10.0619 32.0461 10.0627C36.3423 10.2155 40.5159 11.0085 44.5675 12.4423L54.2272 11.716C50.723 5.7101 43.9921 1.93321 36.1195 1.57864ZM18.0009 10.1216C19.5689 10.0541 21.2534 10.0037 23.0248 9.97734C26.2346 5.4432 29.5764 3.27622 31.8364 2.24821C32.3334 2.02941 32.7978 1.84321 33.2265 1.69735C27.8135 2.36226 21.4258 5.3276 18.0009 10.1216ZM3.72578 12.547C5.61142 12.2475 9.14583 11.7448 12.9233 11.526C17.8347 11.2397 25.0541 11.0884 25.4883 11.0884C25.736 11.069 25.983 11.0736 26.2299 11.1047C26.4769 11.1349 26.7177 11.19 26.953 11.2691C27.1883 11.3491 27.4135 11.4515 27.6286 11.5764C27.843 11.7021 28.0426 11.8479 28.2274 12.014C30.0144 13.5207 30.9207 16.5605 30.9207 21.0489C30.9207 25.9702 30.3802 29.609 29.3178 31.8706C28.865 32.8327 28.4029 33.3447 28.0612 33.6202L30.4959 33.7389C31.5141 32.7962 32.1626 30.007 32.3288 28.9859C33.6669 20.7401 32.5765 12.4989 32.5656 12.4182C32.401 11.0643 31.4178 10.7648 31.0194 10.6989C30.9976 10.7012 30.9759 10.7012 30.9534 10.6989H30.8555C22.5643 10.4079 14.2987 10.74 6.05798 11.6966C5.21224 11.7936 4.43484 12.0776 3.72578 12.547ZM3.72578 32.4502L6.1038 30.3072C6.16593 30.2506 6.23893 30.2234 6.32281 30.2258L18.5507 30.5012C18.5934 30.5035 18.6346 30.5128 18.6734 30.5299C20.4402 31.3461 22.1472 32.2717 23.7952 33.3052H27.3995C27.6776 33.1787 30.2839 31.7131 30.2839 21.0574C30.2839 15.7102 28.9411 13.4532 27.8158 12.5035C26.6905 11.5547 25.5714 11.7207 25.5605 11.723H25.5147C25.4401 11.723 17.9815 11.865 12.9536 12.1606C9.41687 12.3771 5.90265 12.7914 2.41174 13.4028H2.38999C2.37679 13.4028 0.868591 13.6216 0.811121 15.1523C0.500472 19.9603 0.595997 24.7606 1.09847 29.5523C1.1008 29.564 1.1008 29.5756 1.09847 29.5872C1.09847 29.6904 1.19011 32.3144 3.72578 32.4571V32.4502ZM18.4699 31.1382L6.4261 30.8643L4.60181 32.4983L22.7095 33.3626C20.8697 32.2531 18.8357 31.3042 18.4614 31.1359L18.4699 31.1382ZM31.2974 35.1447C31.452 35.0679 31.598 34.9779 31.7354 34.874C32.6643 34.178 33.875 32.4463 34.3744 28.1372C34.946 23.0615 34.8939 17.9928 34.2191 12.9303C34 11.6439 33.2359 11.0798 32.5237 10.8416C32.7101 11.0504 32.8592 11.2823 32.9718 11.5384C33.0836 11.7944 33.1535 12.0613 33.1807 12.3398C33.1807 12.4182 34.2928 20.7494 32.9423 29.0884C32.9136 29.2528 32.2674 33.1197 30.7942 34.3053C30.7359 34.351 30.6707 34.3743 30.5969 34.3751H30.5814L3.8182 33.0864H3.66055C4.05429 33.9615 5.89411 34.0314 5.91586 34.0314L30.2575 35.3441H30.2987C30.6489 35.3752 30.979 35.3084 31.2889 35.1424L31.2974 35.1447ZM42.7697 19.5662L41.3904 19.6143C41.3112 19.6143 39.4698 19.7144 39.4302 21.7704L38.9813 29.1497C38.9813 29.2769 38.8066 31.7348 37.449 33.3603C40.2495 31.4509 42.1655 23.2446 42.7611 19.5639L42.7697 19.5662ZM40.8273 31.118C44.6157 26.5606 45.5725 20.9108 45.7635 19.4607L43.4026 19.546C43.2644 20.4034 42.1476 27.0153 39.9715 31.118H40.8273ZM43.8585 32.6232H54.3584C57.3935 30.405 58.3805 27.691 58.9855 24.0383C59.4033 21.5082 59.4888 18.3233 59.248 14.3035C59.1144 12.0877 58.8908 10.2528 57.5247 10.2528H57.4851C57.3267 10.2411 57.1737 10.2644 57.0269 10.3241C56.8793 10.3831 56.7527 10.4716 56.6463 10.5895C56.5594 10.733 56.5003 10.8866 56.4708 11.0519C56.4405 11.2164 56.4421 11.3809 56.4732 11.5454L57.8532 11.4406C57.9402 11.4344 58.0171 11.4592 58.0831 11.5174C58.1491 11.5756 58.1848 11.6485 58.1903 11.7362L58.5452 16.9415C58.5452 16.9896 58.5801 17.954 57.2311 18.2752C57.4369 21.5563 56.752 25.95 56.7209 26.1494C56.7162 26.1789 56.7077 26.2076 56.6945 26.2347C55.017 29.7339 52.9721 30.5478 52.8821 30.5803C52.8479 30.592 52.8129 30.599 52.7772 30.5997C52.6832 30.5997 51.8398 30.6106 50.723 30.6106C48.6666 30.6106 45.6867 30.5734 44.7205 30.3701C44.3664 30.3049 44.0309 30.1854 43.7148 30.0116C43.3995 29.8378 43.1191 29.6183 42.8753 29.3529C42.4839 29.9783 42.0606 30.5803 41.6047 31.1599C41.9053 31.5028 42.247 31.7977 42.6299 32.0452C43.0127 32.2927 43.422 32.4828 43.8585 32.6162V32.6232Z" fill="url(#paint0_linear_7536_152)"/>
<defs>
<linearGradient id="paint0_linear_7536_152" x1="0" y1="32.9355" x2="60" y2="32.9355" gradientUnits="userSpaceOnUse">
<stop offset="0" stop-color="#0CBAF1"/>
<stop offset="1" stop-color="#E95CE9"/>
</linearGradient>
</defs>
</svg>
